REM DIRINDEX 1\2,1\3,1\4,1\5,1\6
REM DIRNAME cjc030,folder01,folder02,folder03,folder04,folder05
TITLE ""
FILE "Disc4Track73.mp3" MP3
  TRACK 01 AUDIO
    TITLE "3:cjc030_08237"
    INDEX 01 00:00:00
  TRACK 02 AUDIO
    TITLE "0:"
    INDEX 01 00:01:01
  TRACK 03 AUDIO
    TITLE "4:cjc030_08238"
    INDEX 01 00:01:09
  TRACK 04 AUDIO
    TITLE "0:"
    INDEX 01 00:02:40
  TRACK 05 AUDIO
    TITLE "5:cjc030_08239"
    INDEX 01 00:02:49
  TRACK 06 AUDIO
    TITLE "0:"
    INDEX 01 00:03:53
  TRACK 07 AUDIO
    TITLE "6:cjc030_08240"
    INDEX 01 00:03:64
  TRACK 08 AUDIO
    TITLE "0:"
    INDEX 01 00:08:62
  TRACK 09 AUDIO
    TITLE "3:cjc030_08241"
    INDEX 01 00:09:36
  TRACK 10 AUDIO
    TITLE "0:"
    INDEX 01 00:10:43
  TRACK 11 AUDIO
    TITLE "4:cjc030_08242"
    INDEX 01 00:10:53
  TRACK 12 AUDIO
    TITLE "0:"
    INDEX 01 00:12:07
  TRACK 13 AUDIO
    TITLE "5:cjc030_08243"
    INDEX 01 00:12:18
  TRACK 14 AUDIO
    TITLE "0:"
    INDEX 01 00:13:24
  TRACK 15 AUDIO
    TITLE "6:cjc030_08244"
    INDEX 01 00:13:37
  TRACK 16 AUDIO
    TITLE "0:"
    INDEX 01 00:17:35
  TRACK 17 AUDIO
    TITLE "3:cjc030_08245"
    INDEX 01 00:18:09
  TRACK 18 AUDIO
    TITLE "0:"
    INDEX 01 00:19:18
  TRACK 19 AUDIO
    TITLE "4:cjc030_08246"
    INDEX 01 00:19:26
  TRACK 20 AUDIO
    TITLE "0:"
    INDEX 01 00:20:36
  TRACK 21 AUDIO
    TITLE "5:cjc030_08247"
    INDEX 01 00:20:45
  TRACK 22 AUDIO
    TITLE "0:"
    INDEX 01 00:21:53
  TRACK 23 AUDIO
    TITLE "6:cjc030_08248"
    INDEX 01 00:21:64
  TRACK 24 AUDIO
    TITLE "0:"
    INDEX 01 00:23:42
  TRACK 25 AUDIO
    TITLE "3:cjc030_08249"
    INDEX 01 00:24:16
  TRACK 26 AUDIO
    TITLE "0:"
    INDEX 01 00:25:15
  TRACK 27 AUDIO
    TITLE "4:cjc030_08250"
    INDEX 01 00:25:23
  TRACK 28 AUDIO
    TITLE "0:"
    INDEX 01 00:26:40
  TRACK 29 AUDIO
    TITLE "5:cjc030_08251"
    INDEX 01 00:26:48
  TRACK 30 AUDIO
    TITLE "0:"
    INDEX 01 00:27:47
  TRACK 31 AUDIO
    TITLE "6:cjc030_08252"
    INDEX 01 00:27:59
  TRACK 32 AUDIO
    TITLE "0:"
    INDEX 01 00:32:03
  TRACK 33 AUDIO
    TITLE "3:cjc030_08253"
    INDEX 01 00:32:52
  TRACK 34 AUDIO
    TITLE "0:"
    INDEX 01 00:33:52
  TRACK 35 AUDIO
    TITLE "4:cjc030_08254"
    INDEX 01 00:33:62
  TRACK 36 AUDIO
    TITLE "0:"
    INDEX 01 00:36:44
  TRACK 37 AUDIO
    TITLE "5:cjc030_08255"
    INDEX 01 00:36:54
  TRACK 38 AUDIO
    TITLE "0:"
    INDEX 01 00:37:52
  TRACK 39 AUDIO
    TITLE "6:cjc030_08256"
    INDEX 01 00:37:67
  TRACK 40 AUDIO
    TITLE "0:"
    INDEX 01 00:40:13
  TRACK 41 AUDIO
    TITLE "3:cjc030_08257"
    INDEX 01 00:40:62
  TRACK 42 AUDIO
    TITLE "0:"
    INDEX 01 00:41:65
  TRACK 43 AUDIO
    TITLE "4:cjc030_08258"
    INDEX 01 00:42:00
  TRACK 44 AUDIO
    TITLE "0:"
    INDEX 01 00:43:23
  TRACK 45 AUDIO
    TITLE "5:cjc030_08259"
    INDEX 01 00:43:33
  TRACK 46 AUDIO
    TITLE "0:"
    INDEX 01 00:44:38
  TRACK 47 AUDIO
    TITLE "6:cjc030_08260"
    INDEX 01 00:44:50
  TRACK 48 AUDIO
    TITLE "0:"
    INDEX 01 00:50:39
  TRACK 49 AUDIO
    TITLE "3:cjc030_08261"
    INDEX 01 00:51:15
  TRACK 50 AUDIO
    TITLE "0:"
    INDEX 01 00:52:20
  TRACK 51 AUDIO
    TITLE "4:cjc030_08262"
    INDEX 01 00:52:28
  TRACK 52 AUDIO
    TITLE "0:"
    INDEX 01 00:54:25
  TRACK 53 AUDIO
    TITLE "5:cjc030_08263"
    INDEX 01 00:54:34
  TRACK 54 AUDIO
    TITLE "0:"
    INDEX 01 00:55:38
  TRACK 55 AUDIO
    TITLE "6:cjc030_08264"
    INDEX 01 00:55:51
  TRACK 56 AUDIO
    TITLE "0:"
    INDEX 01 00:58:54
  TRACK 57 AUDIO
    TITLE "3:cjc030_08265"
    INDEX 01 00:59:28
  TRACK 58 AUDIO
    TITLE "0:"
    INDEX 01 01:00:37
  TRACK 59 AUDIO
    TITLE "4:cjc030_08266"
    INDEX 01 01:00:47
  TRACK 60 AUDIO
    TITLE "0:"
    INDEX 01 01:01:50
  TRACK 61 AUDIO
    TITLE "5:cjc030_08267"
    INDEX 01 01:01:58
  TRACK 62 AUDIO
    TITLE "0:"
    INDEX 01 01:02:69
  TRACK 63 AUDIO
    TITLE "6:cjc030_08268"
    INDEX 01 01:03:06
  TRACK 64 AUDIO
    TITLE "0:"
    INDEX 01 01:05:21
  TRACK 65 AUDIO
    TITLE "3:cjc030_08269"
    INDEX 01 01:05:69
  TRACK 66 AUDIO
    TITLE "0:"
    INDEX 01 01:07:02
  TRACK 67 AUDIO
    TITLE "4:cjc030_08270"
    INDEX 01 01:07:10
  TRACK 68 AUDIO
    TITLE "0:"
    INDEX 01 01:09:05
  TRACK 69 AUDIO
    TITLE "5:cjc030_08271"
    INDEX 01 01:09:14
  TRACK 70 AUDIO
    TITLE "0:"
    INDEX 01 01:10:20
  TRACK 71 AUDIO
    TITLE "6:cjc030_08272"
    INDEX 01 01:10:31
  TRACK 72 AUDIO
    TITLE "0:"
    INDEX 01 01:13:49
  TRACK 73 AUDIO
    TITLE "3:cjc030_08273"
    INDEX 01 01:14:23
  TRACK 74 AUDIO
    TITLE "0:"
    INDEX 01 01:15:25
  TRACK 75 AUDIO
    TITLE "4:cjc030_08274"
    INDEX 01 01:15:35
  TRACK 76 AUDIO
    TITLE "0:"
    INDEX 01 01:20:06
  TRACK 77 AUDIO
    TITLE "5:cjc030_08275"
    INDEX 01 01:20:16
  TRACK 78 AUDIO
    TITLE "0:"
    INDEX 01 01:21:16
  TRACK 79 AUDIO
    TITLE "6:cjc030_08276"
    INDEX 01 01:21:29
  TRACK 80 AUDIO
    TITLE "0:"
    INDEX 01 01:25:43
